<?xml version="1.0" encoding="UTF-8"?>
<svg version="1.1" xmlns="http://www.w3.org/2000/svg" width="256" height="256">
<path d="M0 0 C1.1969323 -0.00832352 1.1969323 -0.00832352 2.41804504 -0.01681519 C4.99815589 -0.02510588 7.57633399 0.00000581 10.15625 0.03125 C11.47464371 0.03955841 11.47464371 0.03955841 12.81967163 0.04803467 C26.41493333 0.14891621 39.48925798 0.88307068 52.65625 4.53125 C53.42549805 4.74023926 54.19474609 4.94922852 54.98730469 5.16455078 C63.82392717 7.65019996 72.20821168 11.05226906 80.53125 14.90625 C81.63569458 15.41418091 81.63569458 15.41418091 82.76245117 15.93237305 C85.10444206 17.0613661 87.37170035 18.2897625 89.65625 19.53125 C91.15888838 20.29196808 91.15888838 20.29196808 92.69188309 21.0680542 C100.98812436 25.78026905 100.98812436 25.78026905 102.74480438 30.38406372 C103.13476999 33.85846301 103.14264441 37.15415611 103.01855469 40.6484375 C103.02118317 42.59602715 103.02118317 42.59602715 103.02386475 44.58296204 C103.02729192 48.12365652 102.95704387 51.65941821 102.87297726 55.19897079 C102.79767157 58.90493096 102.79089059 62.61101975 102.77667236 66.31762695 C102.7394563 73.32726517 102.64110518 80.33464248 102.52047849 87.34328747 C102.38608515 95.32607185 102.32030641 103.30896751 102.26013327 111.29260254 C102.13488905 127.70680608 101.92399035 144.11873903 101.65625 160.53125 C97.50631878 159.18364063 93.71610903 157.66132005 89.83203125 155.66796875 C88.71892578 155.11044922 87.60582031 154.55292969 86.45898438 153.97851562 C84.17733405 152.82811443 81.90100909 151.66707345 79.63085938 150.49414062 C60.93563688 141.20518524 41.55106782 139.33453518 20.96875 137.46875 C15.98374604 137.01683991 11.00135577 136.54417424 6.01953125 136.05859375 C4.89549393 135.96368149 3.7714566 135.86876923 2.61335754 135.77098083 C-9.77902429 134.55794046 -9.77902429 134.55794046 -14.34375 130.53125 C-18.72987862 124.60070299 -18.9186265 119.69127082 -18.86132812 112.45874023 C-18.8683374 111.36520233 -18.87534668 110.27166443 -18.88256836 109.14498901 C-18.90012303 105.54301296 -18.88853461 101.94182731 -18.875 98.33984375 C-18.87769542 95.83073272 -18.88157827 93.32162271 -18.88659668 90.81251526 C-18.89248815 85.5595803 -18.88432241 80.30684969 -18.86523438 75.05395508 C-18.8434567 68.99108339 -18.8505287 62.92874964 -18.87254 56.86589092 C-18.89291397 51.01870185 -18.89071379 45.17171638 -18.87901306 39.32451057 C-18.87634615 36.84261054 -18.87961424 34.36069677 -18.88893127 31.87881279 C-18.89909603 28.41029411 -18.88359557 24.94280712 -18.86132812 21.47436523 C-18.86942505 20.45030075 -18.87752197 19.42623627 -18.88586426 18.37113953 C-18.81701397 12.5787401 -18.29616593 9.08301 -14.34375 4.53125 C-9.74567905 0.58487415 -5.88093953 -0.06179897 0 0 Z " fill="#000000" transform="translate(18.34375,95.46875)"/>
<path d="M0 0 C0.84151108 -0.00807175 1.68302216 -0.01614349 2.55003357 -0.02445984 C4.31906117 -0.0382149 6.08811435 -0.04897491 7.85717773 -0.05688477 C9.65999164 -0.06845275 11.46277004 -0.08897981 13.26538086 -0.1184082 C15.88548786 -0.16110271 18.50458834 -0.17724936 21.125 -0.1875 C22.32522545 -0.21376213 22.32522545 -0.21376213 23.54969788 -0.24055481 C28.83000703 -0.2201686 31.875629 0.64850221 35.99609375 4.23828125 C40.69922697 9.66072747 40.56772 14.34561946 40.51367188 21.18139648 C40.52068115 22.27318207 40.52769043 23.36496765 40.53491211 24.48983765 C40.55249127 28.09244353 40.54086802 31.69426136 40.52734375 35.296875 C40.53003886 37.80501964 40.53392144 40.31316326 40.53894043 42.82130432 C40.54483555 48.07601937 40.5366553 53.33053032 40.51757812 58.58520508 C40.49582218 64.64746817 40.50285467 70.70919283 40.52488375 76.77144283 C40.54527361 82.61809242 40.54305061 88.46453854 40.53135681 94.31120491 C40.52869151 96.79227843 40.53195234 99.27336571 40.54127502 101.75442314 C40.55145397 105.2252406 40.53591837 108.69503039 40.51367188 112.16577148 C40.5217688 113.18781174 40.52986572 114.20985199 40.53820801 115.26286316 C40.46487558 121.45067993 39.70787326 125.21953129 35.99609375 130.23828125 C30.49922236 135.0872472 22.58373568 135.17869801 15.6328125 135.765625 C13.85291679 135.93911217 13.85291679 135.93911217 12.0370636 136.11610413 C6.99872593 136.6066071 1.95723907 137.06032542 -3.08422852 137.51733398 C-24.57469681 139.49707049 -43.19685517 142.55726274 -62.44140625 152.48828125 C-64.33890963 153.44755984 -66.23888027 154.4016679 -68.14064026 155.35247803 C-69.82803058 156.19898887 -71.50886814 157.05852602 -73.18920898 157.91894531 C-75.52916533 159.01575545 -77.51244472 159.66797305 -80.00390625 160.23828125 C-80.3314198 143.05314845 -80.57804753 125.8689935 -80.72927666 108.68145084 C-80.80137305 100.70022636 -80.89959329 92.72094414 -81.06005859 84.7409668 C-81.19991004 77.78278473 -81.28998962 70.82600917 -81.32114518 63.86646074 C-81.33935239 60.18283815 -81.3818908 56.50323767 -81.48412704 52.8209095 C-82.08227125 30.43053407 -82.08227125 30.43053407 -78.6364193 25.13789749 C-74.95251076 21.49643241 -70.85302995 19.85659493 -66.00390625 18.23828125 C-64.46971006 17.44843051 -62.94493021 16.63883585 -61.4453125 15.78515625 C-60.15845471 15.17317887 -58.86549365 14.57385037 -57.56640625 13.98828125 C-56.85669678 13.66311523 -56.1469873 13.33794922 -55.41577148 13.00292969 C-38.14616178 5.25919286 -18.98021489 0.17566844 0 0 Z " fill="#000000" transform="translate(216.00390625,95.76171875)"/>
<path d="M0 0 C10.23906578 7.73254248 18.72711365 17.59665562 20.6875 30.6875 C22.11678455 48.13329299 19.50517553 61.04058775 8.03125 74.65234375 C0.02533375 83.28136197 -10.26078398 88.35475631 -21.96875 89.00390625 C-38.65548452 89.56319388 -50.64291019 85.89777041 -63.0625 74.375 C-73.05541038 63.81645319 -75.82689781 52.26922077 -75.73217773 38.15722656 C-75.32139743 24.03483761 -69.475381 12.95884274 -59.25 3.28125 C-42.59283172 -10.42061423 -18.05009418 -11.9794347 0 0 Z " fill="#000000" transform="translate(155.3125,7.3125)"/>
</svg>
